<svg viewBox="0 0 120 120" xmlns="http://www.w3.org/2000/svg">
  <defs>
    <linearGradient id="bg" x1="0" y1="0" x2="1" y2="1">
      <stop offset="0" stop-color="#ff4d4d"/>
      <stop offset="1" stop-color="#b30000"/>
    </linearGradient>
  </defs>
  <rect width="120" height="120" rx="26" fill="url(#bg)"/>
  <ellipse cx="60" cy="104" rx="30" ry="5" fill="rgba(0,0,0,0.15)"/>
  <!-- palma -->
  <rect x="44" y="48" width="32" height="40" rx="10" fill="#ffffff"/>
  <!-- dedos -->
  <rect x="46" y="30" width="7" height="24" rx="3.5" fill="#ffffff"/>
  <rect x="55" y="26" width="7" height="28" rx="3.5" fill="#ffffff"/>
  <rect x="64" y="30" width="7" height="24" rx="3.5" fill="#ffffff"/>
  <!-- pulgar -->
  <path d="M44 60 C36 58 32 64 36 70 L44 72 Z" fill="#ffffff"/>
  <!-- puno / muneca -->
  <path d="M44 84 L76 84 L80 100 L40 100 Z" fill="#e7ebf2"/>
  <!-- nudilleras (proteccion) -->
  <rect x="48" y="50" width="24" height="9" rx="4" fill="#1b2740"/>
  <circle cx="54" cy="54.5" r="2" fill="#ff5c2a"/>
  <circle cx="66" cy="54.5" r="2" fill="#ff5c2a"/>
  <!-- correa -->
  <rect x="44" y="78" width="32" height="5" rx="2.5" fill="#1b2740"/>
</svg>
